<svg version="1" xmlns="http://www.w3.org/2000/svg" width="1397.333" height="1397.333" viewBox="0 0 1048.000000 1048.000000"><path d="M491 .6c-1.9.2-9.1.9-15.9 1.5C417.5 7 356.2 23.7 302.3 49 245.5 75.6 198 108.9 153.5 153.5c-41.3 41.2-72.3 84.1-98 135.5C25.9 348.2 9 406.7 1.8 475c-1.8 16.8-1.8 81.2 0 98 11.6 110.1 51.6 205.2 121.8 289.5 13.9 16.7 45.2 48 61.9 61.9 84.3 70.2 178.9 110 289.5 121.8 16.4 1.7 82.1 1.8 98 0 80-8.7 149.2-31 215-69.2 59.2-34.4 113.8-83 155.5-138.5 51.7-68.8 86.1-151 99-236.9 4.3-29 5-39.4 5-77.6 0-38.2-.7-48.6-5-77.6-12.9-85.9-47.3-168.2-99-236.9-27.9-37-64.1-73.7-100.5-101.6C779.6 59.2 703.9 25 625.5 9.6c-35.8-7-53.9-8.7-96-9.1-19.2-.2-36.6-.1-38.5.1zM559 30c101.8 7.6 196.3 44.8 275.8 108.6 93.4 74.9 157.3 183.8 177.3 302 5.3 31.8 6.3 44.8 6.4 82.4 0 36.4-.7 47.2-5.1 76-14.9 97.7-58.7 188.5-126.5 262-44.5 48.2-103.1 89.8-164 116.6-46.9 20.5-98.5 33.9-152.9 39.6-16.6 1.7-75.3 1.7-92 0C360 1005 255.5 955.8 174 874c-38.6-38.6-67.5-78.6-91.9-127C55.9 695.1 40 643.2 32.6 585c-5.3-41.5-4.6-92.4 1.9-136 12.6-84.2 48.9-166.9 102.8-234.3C223.1 107.5 350 40.5 487 30.1c15.5-1.2 56.5-1.2 72-.1z"/><path d="M466 196c0 1.7-.6 1.9-3.7 1.7-2.1-.1-4.4-.6-5.1-1.1-.7-.4-1.8-.3-2.5.2-.7.6-6.9.9-15.2.7-13.8-.3-31.2-.4-41-.1l-4.9.2-.3 3.8c-.4 6.3-6.6 11.8-10.8 9.6-3.4-1.8-8.3.5-10 4.8-1 2.3-2.2 3.4-4.4 3.8-1.7.4-3.8 1.5-4.8 2.6-1.7 1.9-1.7 2 0 3.3 1 .7 1.7 2.5 1.7 4.4 0 2.7-1.9 5.1-13.2 16.6-7.3 7.4-13.9 13.5-14.8 13.5-2.4.1-5 2.5-5 4.7 0 2.5-15.1 17.3-17.7 17.3-1.1 0-3.4-.5-5.2-1.1-2.7-.9-3.5-.8-5.2.7-1.6 1.5-1.8 2.6-1.3 7.8l.6 6.1-5.6 5.5c-3.1 3-5.6 6-5.6 6.6 0 .7-.9 1.6-2 1.9-1.1.3-3.1 2.1-4.5 3.9-2.1 2.8-2.4 4.2-2.4 10.6.1 4.1-.1 10.2-.3 13.5-.2 3.8.1 6.8.9 8.2.8 1.3 1.1 2.3.8 2.3-.3 0 .2 1.8 1.1 4 2.5 6.2 1.2 10.4-4.9 16.4-8.5 8.4-9.2 9.3-7.7 11.1 1 1.2 1 2.1.1 4.1-1.2 2.8-.4 5.5 1 3.3.6-1 .9-.6.9 1.3 0 2.2.5 2.8 2.1 2.8 3.7 0 5.8 3.8 5.9 10.6 0 5.3-.3 6.3-2.8 8.7-1.5 1.5-3.3 2.7-4 2.7-.7 0-1.2.6-1.2 1.4 0 .8-1.6 2.8-3.5 4.5-3.3 2.9-6.3 3.7-11.7 3.3-1.3-.1-1.8.6-1.8 2.6 0 1.5.4 3.3.9 4.1.6.9.5 2.1-.2 3.3-.9 1.3-.9 2.3 0 3.7.9 1.4.9 2.1 0 3-.8.8-.8 1.4.1 2.3 1.4 1.4 1.6 15.4.3 21.2-1.2 5.1-.6 6.3 3.7 7.1 4.5.8 11.2 6.9 11.2 10.2 0 1.5.6 2.3 1.8 2.3.9 0 2.8 1.2 4.2 2.6 1.9 2.1 2.4 3.7 2.6 8.6.2 7.8 1.9 9.8 6.5 7.5 2.5-1.2 3.8-1.3 5.8-.4 3.8 1.6 7.1 4.8 7.1 6.8 0 1.1 1.4 2.5 3.4 3.4 2.9 1.4 3.7 1.4 5.5.3 1.2-.7 2.1-2.2 2.1-3.4 0-2.3 5.4-5.7 10.8-6.9 2.8-.6 3.4-.4 3.9 1.3.2 1.1 1.6 2.5 2.9 3.1 3.4 1.5 6 0 12.2-7.4 2.7-3.3 7.6-8.5 10.8-11.6l5.9-5.7 11.5.7c6.3.4 17.4.6 24.5.4 55.3-1.2 61.7-1.1 62.3.9.2 1 1.1 1.8 1.8 1.8 2.6 0 3.4 5.1 3.7 22.9.2 11.6.7 18.4 1.6 19.9 1.5 2.7 4.7 4.1 9.2 4 4.2-.1 10.4 6.1 9.5 9.5-.8 3.2.5 9.7 1.9 9.7 1.3 0 13.7 11.9 16.1 15.5 1.7 2.6 2.9 31.1 1.3 32-.6.4-.7 1.9-.3 3.8.4 1.8.9 8.1 1 14.2.2 6 .3 13 .4 15.5 0 2.5-.1 7.4-.4 11-.5 7.5.8 13.2 4.1 17.6 1.3 1.7 2.3 3.4 2.3 3.9 0 .4 3.1 3.9 6.9 7.6l6.9 6.8-.1 17.1c0 9.4-.4 17.3-.8 17.6-.5.3-.4 1.6.1 2.9.5 1.4.7 5.1.3 8.3-.3 3.1-.5 9.6-.3 14.3.2 8.6.1 8.7-2.9 10.9-3.9 2.7-7.1 8.8-7.1 13.4 0 3.7-3.6 7.6-6.9 7.6-2.8 0-4 5.1-3.1 13.2.6 5.5.6 36.5-.1 45.3 0 .5.3 4.3.7 8.3l.7 7.4-7.9 7.9c-4.3 4.3-8.7 7.9-9.7 7.9-2.4 0-4.7 2.3-4.7 4.8 0 1.1-.7 2.5-1.6 3.3-3.6 3-5.9 9.9-7 21.3-.5 5.8-.7 6.1-8.3 13.8l-7.8 7.8h-10.1c-9.7 0-10.1.1-12.1 2.6-1.3 1.6-2.1 4.1-2.1 6.4 0 2.8-.8 4.6-2.9 6.9-1.6 1.7-3.6 3.1-4.5 3.1-2 0-2.2 4.8-.2 5.6.8.3 3.1-.2 5-1.1 2.8-1.3 4.2-1.5 6.6-.7 1.6.6 4.2.7 5.7.3 3.3-.8 6-.7 12.8.7 2.7.6 5.4.7 6 .3.5-.5 4.2-1.1 8-1.4 3.9-.3 6.4-.3 5.8 0-1.3.5-1.9 4.3-.7 4.3s3.4-3 3.4-4.7c0-1.5.3-1.4 1.9.7 1.6 2 2.2 2.2 3.4 1.2 1.4-1.2 8.7-1.3 34.2-.4.6 0 11.6-.2 24.5-.4 40.5-.7 54-.6 55.4.5 1 .8 2.1.7 4-.3 3.9-2 16.3-2 19.4 0 1.7 1.1 2.7 1.3 3.1.5.4-.6 3.8-1 8.1-1 4.1.1 10 .1 13 0 10.6-.2 17.5-.1 20.5.1 4.1.4 4.4-2.2.6-6-2-1.9-2.9-3.6-2.5-4.6.5-1.3 0-1.7-2.2-1.7-1.6-.1-9.7-.3-18-.5l-15-.5-7.7-7.7-7.6-7.7-.7-7.6c-.4-4.5-.2-8.3.3-9.4.7-1.2.6-2.6-.4-4.5-1.1-2.3-2.2-2.9-6.3-3.5-2.7-.4-5.4-.4-6 0-.6.4-3.1-1.2-5.5-3.4-2.5-2.3-5.2-4.1-6-4.1-.9 0-1.8-.6-2.1-1.4-.4-1-1.8-1.2-4.9-.8-11 1.2-19.5-2.9-19.5-9.4 0-1.9.5-3.4 1-3.4 3.1 0-.7-7.7-4.1-8.4-1.5-.3-3.7-2-5-3.8-2.5-3.6-8.9-9.8-10-9.8-1.1 0-2.1-6.9-2-13.5.2-20.9.8-40.6 1.4-44.5.4-2.5.3-7.9-.3-12-1.5-10.4-1.9-22.2-.9-24.2.5-.9 1-6.6 1.1-12.5.1-10.8.1-10.8 3.4-14 1.8-1.8 3.7-3.3 4.3-3.3.5 0 1.2-1.3 1.6-2.9.7-3.2 4-6.7 7-7.3 1.7-.3 2.1-1.4 2.8-6.8 1.1-9.7.9-24-.4-27.2-.7-1.7-.9-5-.5-8.6.3-3.1.6-15 .6-26.3 0-19.1.1-20.8 2-23.2 1.8-2.3 1.9-2.7.5-5.3-.9-1.8-1.5-5.8-1.6-10.4-.3-26 .1-27.9 6.7-34.5 2.4-2.4 2.5-3 1.9-8.9-.9-7.8.5-12.8 4.7-17.3 2.8-2.9 3.4-3.1 9-2.8 5.6.3 6 .2 7-2.4.6-1.4 1-4.6.9-7.1-.2-5.5 2.8-9 8.1-9.5 6.1-.5 10-2.9 18.7-11.8 8.3-8.4 8.8-8.8 12.6-8.5 4.3.3 4.3.3 11.8-6.3 3.3-2.9 5.6-4.1 7.5-4.1 8.9.5 25-.3 28.4-1.2 1.5-.5 3-1.6 3.3-2.7 1.1-3.4 6.6-7.1 9.6-6.5 4.1.8 8.9-3.5 8.9-7.9 0-1.9.5-3.7 1-4 .6-.3 1-1.3 1-2.1 0-1.8-4-6.4-5.5-6.4-1.8 0-4.5-3.4-4.5-5.6 0-2.3-6-4.6-8.5-3.2-.8.5-5.1.6-9.4.3l-7.8-.7-11.4-11c-14.4-13.8-12.7-12.1-20.5-20.5-3.7-4-7.5-7.5-8.5-7.8-1-.3-2.7-2.3-3.9-4.3-1.2-2-5.3-6.5-9-10-3.8-3.4-7-7.2-7.2-8.5-.2-1.4-1-2.2-2.3-2.2-1.8 0-2-.7-2-5.2.1-4.4.6-5.7 3-8.3 4.3-4.5 9.2-6.7 11.6-5.2 1.1.7 5.8 1.3 10.7 1.3 6.7.1 9.5.6 12.4 2.1 3.7 2.1 7.4 1.8 6.5-.5-.3-.9 1.3-1.3 5.9-1.5 6.3-.3 6.4-.3 6.4 2.2 0 1.4.5 2.6 1 2.6.6 0 1-.7 1-1.6 0-1.1.6-1.4 2-.9 2.7.9 7.6-1.4 8.8-4 .5-1.1.6-3.4.2-5.1-.9-4.1-.3-5.5 5.6-11.6 4.1-4.2 4.9-5.7 4.3-7.3-1.4-3.6-.9-5.4 2.2-9l3.1-3.5h9.7c10.5 0 13-.9 18.6-6.8 1.6-1.7 3.2-2.9 3.7-2.6.6.4 2.9-3.5 3.2-5.6.2-1 15.4-15 16.3-15 1.7 0 4.5-3.8 4.1-5.7-.2-.9-1.4-2.3-2.6-2.9-3.2-1.6-9.2-7.5-9.2-9.1 0-.7-.6-1.3-1.3-1.3-1.8 0-8.4-7.1-8.9-9.5-.2-1.1-1.2-2.1-2.3-2.3-2.8-.5-5.1-2.8-7-6.8-1-2-2.3-3.4-3.4-3.4-1.6 0-13.8-11.5-17.4-16.4-1.3-1.7-7.6-2.5-25.9-2.9-7-.2-7.9-.5-10.7-3.1-1.7-1.7-3.1-3.6-3.1-4.3 0-1.9-4.9-3.5-8.7-2.8-4.3.8-6.6-.6-8.3-4.9-1.2-3.1-1.8-3.6-4.4-3.5-5.8.2-12.1-1.4-14.4-3.5-1.3-1.1-3.1-3.9-4.2-6.2-1.8-4.1-1.9-4.2-7.7-4.6-6.9-.5-10.1 1-10.9 5.2-.4 1.5-1.9 4.1-3.5 5.6-2.5 2.4-3.8 2.7-12.2 3.3-7.9.5-10 1-13.5 3.3-2.3 1.6-4.9 4-5.9 5.5-1 1.6-2.4 3.2-3.3 3.7-.8.5-4.8 4.2-8.9 8.3-8 7.9-6.7 7.4-20.1 7.7-1.9.1-4 .5-4.7.9-1.3.8-7.3-5-7.3-7.1 0-.6-.8-1.2-1.7-1.2-2.1-.1-19.3-16.1-19.3-18.1-.1-.8-1.2-2.7-2.5-4.4l-2.4-2.9-2.1 2.2c-3.2 3.4-9.2 2.8-8.3-.9.4-1.5 0-2.2-1.6-2.6-1.4-.3-2.4-1.8-3.1-4.2-.5-2.1-2.1-4.7-3.5-5.9-3.1-2.7-3.5-2.7-3.5-.2zm-70 2.4c0 .3-.4.8-1 1.1-.5.3-1 .1-1-.4 0-.6.5-1.1 1-1.1.6 0 1 .2 1 .4zm154.2 125.3c1 .9 1.8 2.1 1.8 2.8 0 1.2 4.5 5.5 5.8 5.5 2.5 0 6.2-2.7 6.2-4.6 0-1.1 1.1-3 2.4-4.3 2.6-2.4 9.6-4.1 9.6-2.2 0 1.3 5.6 1.5 6.4.2 1-1.5 4.9 0 8.4 3.2 1.7 1.7 3.2 3.5 3.2 4 0 1.4 2.7 3.7 4.4 3.7 1.9 0 6.5 7.8 7.3 12.3.8 4.9-1.3 10.2-5.5 14.2-2.7 2.6-4.3 3.4-6 3-4.3-1-15.7-.6-22.4.8-5.3 1.1-7.7 2.3-11.4 5.6-2.6 2.2-5.5 4.1-6.5 4.1-1.3 0-1.9.7-1.9 2.4 0 1.5-1.2 3.4-3 5-2.7 2.2-3.7 2.5-8.8 2-3.1-.2-9.5-.6-14.1-.9-7-.4-8.8-.8-10.9-2.7-2.1-2-2.3-2.9-1.9-7.3.2-2.8 0-7.5-.5-10.5-1.5-9-1.7-19.2-.2-22 .7-1.4 4.5-5.7 8.6-9.7 7.3-7.2 7.3-7.2 13.3-7.5 7.3-.4 13.4.8 15.7 2.9zM539 582.5c2.1 1.9 6 12.1 6 15.9 0 1.5-.5 3.6-1 4.6-.9 1.6-1.5 22.5-1 29.9.3 3.4-5 8.4-8.7 8.2-1.5-.1-5.7-.3-9.3-.4-7-.2-11.5-2.5-12.5-6.2-.8-2.7-.8-14.3-.2-24 .3-4.4.5-10 .4-12.5-.2-10.3-.1-11 2.8-14 3.1-3.2 6.5-4 15.8-3.5 3.7.2 6.5.9 7.7 2z"/></svg>